<svg display='none' xmlns="http://www.w3.org/2000/svg">

    <symbol id='ic_logo' viewBox="0 0 97.25 51.3135" fill="none">
    <path id="Fill 1" d="M36.09 0.25C35.54 0.25 35.09 0.69 35.09 1.25L35.09 5.52C35.09 6.07 35.54 6.52 36.09 6.52L72.42 6.52C82.54 6.52 90.5 14.32 90.5 24.41L90.5 24.41C90.5 24.7 90.73 24.93 91.01 24.93L96.28 24.93C96.56 24.93 96.79 24.7 96.79 24.41L96.79 24.41C96.79 10.92 85.95 0.25 72.42 0.25L36.09 0.25Z" fill="#6B7B84" fill-opacity="1.000000" fill-rule="evenodd"/>
	<path id="Fill 1" d="M35.09 5.52C35.09 6.07 35.54 6.52 36.09 6.52L72.42 6.52C82.54 6.52 90.5 14.32 90.5 24.41C90.5 24.7 90.73 24.93 91.01 24.93L96.28 24.93C96.56 24.93 96.79 24.7 96.79 24.41C96.79 10.92 85.95 0.25 72.42 0.25L36.09 0.25C35.54 0.25 35.09 0.69 35.09 1.25L35.09 5.52Z" stroke="#80949F" stroke-opacity="1.000000" stroke-width="0.500000"/>
	<path id="Fill 3" d="M6.63 25.36L6.63 25.36C6.63 25.12 6.43 24.93 6.19 24.93L0.68 24.93C0.44 24.93 0.25 25.12 0.25 25.36L0.25 25.36C0.25 39.01 10.47 50.28 23.69 51.02L66.03 51.06C66.58 51.06 67.03 50.61 67.03 50.06L67.03 45.48C67.03 44.93 66.58 44.48 66.03 44.48L25.15 44.48C14.91 44.45 6.63 35.94 6.63 25.36Z" fill="#6B7B84" fill-opacity="1.000000" fill-rule="evenodd"/>
	<path id="Fill 3" d="M0.68 24.93C0.44 24.93 0.25 25.12 0.25 25.36C0.25 39.01 10.47 50.28 23.69 51.02L66.03 51.06C66.58 51.06 67.03 50.61 67.03 50.06L67.03 45.48C67.03 44.93 66.58 44.48 66.03 44.48L25.15 44.48C14.91 44.45 6.63 35.94 6.63 25.36C6.63 25.12 6.43 24.93 6.19 24.93L0.68 24.93Z" stroke="#80949F" stroke-opacity="1.000000" stroke-width="0.500000"/>
	<path id="Fill 5" d="M27.66 39.44C30.4 39.44 32.68 38.91 34.93 37.82L35.09 37.67L35.09 29.84L34.25 30.92C32.62 32.69 30.45 33.67 27.98 33.67C23.39 33.67 18.78 30.7 18.78 25.03C18.78 20.74 21.96 16.18 27.82 16.18C28.99 16.18 31.83 16.46 34.24 19.02L35.09 20.06L35.09 12.27L34.94 12.12C32.64 10.97 30.3 10.41 27.63 10.41C23.07 10.41 19.5 11.61 16.66 14.08C14.86 15.63 11.86 19.1 11.86 24.94C11.86 29.27 13.4 32.64 16.69 35.57C19.74 38.25 23.14 39.44 27.66 39.44Z" fill="#6B7B84" fill-opacity="1.000000" fill-rule="evenodd"/>
	<path id="Fill 5" d="M34.93 37.82L35.09 37.67L35.09 29.84L34.25 30.92C32.62 32.69 30.45 33.67 27.98 33.67C23.39 33.67 18.78 30.7 18.78 25.03C18.78 20.74 21.96 16.18 27.82 16.18C28.99 16.18 31.83 16.46 34.24 19.02L35.09 20.06L35.09 12.27L34.94 12.12C32.64 10.97 30.3 10.41 27.63 10.41C23.07 10.41 19.5 11.61 16.66 14.08C14.86 15.63 11.86 19.1 11.86 24.94C11.86 29.27 13.4 32.64 16.69 35.57C19.74 38.25 23.14 39.44 27.66 39.44C30.4 39.44 32.68 38.91 34.93 37.82Z" stroke="#80949F" stroke-opacity="1.000000" stroke-width="0.500000"/>
	<mask id="mask_0_2388" fill="white">
	<path id="Fill 6" d="M58.0186 26.7871C56.262 28.543 53.7324 29.4751 50.5012 29.4751L47.5608 29.4751L47.5608 39.4497L40.9021 39.4497L40.9021 10.4126L49.6565 10.4126C52.9385 10.4126 55.2649 10.8901 57.4453 12.8008C60.1055 15.1636 60.5022 18.4272 60.5022 20.1006C60.5022 21.6646 60.1792 24.6309 58.0186 26.7871ZM47.4355 16.9458L48.7998 16.9458C50.0513 16.9458 51.4775 17.0142 52.5571 17.75C53.0842 18.1265 53.9688 18.9985 53.9688 20.5815C53.9688 21.7515 53.4517 22.8008 52.5977 23.4556C51.5583 24.21 50.333 24.207 49.3169 24.2051C49.2625 24.2046 49.2085 24.2046 49.1553 24.2046L47.4355 24.2046L47.4355 16.9458Z" clip-rule="evenodd" fill="" fill-opacity="1.000000" fill-rule="evenodd"/>
	</mask>
	<path id="Fill 6" d="M58.0186 26.7871C56.262 28.543 53.7324 29.4751 50.5012 29.4751L47.5608 29.4751L47.5608 39.4497L40.9021 39.4497L40.9021 10.4126L49.6565 10.4126C52.9385 10.4126 55.2649 10.8901 57.4453 12.8008C60.1055 15.1636 60.5022 18.4272 60.5022 20.1006C60.5022 21.6646 60.1792 24.6309 58.0186 26.7871ZM47.4355 16.9458L48.7998 16.9458C50.0513 16.9458 51.4775 17.0142 52.5571 17.75C53.0842 18.1265 53.9688 18.9985 53.9688 20.5815C53.9688 21.7515 53.4517 22.8008 52.5977 23.4556C51.5583 24.21 50.333 24.207 49.3169 24.2051C49.2625 24.2046 49.2085 24.2046 49.1553 24.2046L47.4355 24.2046L47.4355 16.9458Z" clip-rule="evenodd" fill="#6B7B84" fill-opacity="1.000000" fill-rule="evenodd" mask="url(#mask_0_2388)"/>
	<path id="Fill 6" d="M58.1953 26.9639Q56.8303 28.3286 54.8977 29.0249Q52.9541 29.7251 50.5012 29.7251L47.5608 29.7251L47.5608 29.4751L47.8108 29.4751L47.8108 39.6997L40.6521 39.6997L40.6521 10.1626L49.6565 10.1626Q50.9653 10.1626 51.9775 10.2686Q53.1011 10.3857 54.0322 10.6494Q55.0227 10.9302 55.8894 11.4019Q56.7837 11.8887 57.6101 12.6128Q59.4209 14.2212 60.209 16.6318Q60.5103 17.5532 60.6462 18.5527Q60.7522 19.3296 60.7522 20.1006Q60.7522 21.7729 60.3105 23.2915Q59.6711 25.4912 58.1951 26.9639L58.1953 26.9639ZM57.8418 26.6099Q59.2268 25.228 59.8306 23.1519Q60.2522 21.7017 60.2522 20.1006Q60.2522 19.3638 60.1509 18.6201Q60.0208 17.6655 59.7336 16.7871Q58.9878 14.5054 57.2805 12.9888Q56.4958 12.3013 55.6504 11.8413Q54.8328 11.396 53.8958 11.1309Q53.0063 10.8789 51.9255 10.7656Q50.9392 10.6626 49.6565 10.6626L40.9021 10.6626L40.9021 10.4126L41.1521 10.4126L41.1521 39.4497L40.9021 39.4497L40.9021 39.1997L47.5608 39.1997L47.5608 39.4497L47.3108 39.4497L47.3108 29.2251L50.5012 29.2251Q52.8667 29.2251 54.728 28.5542Q56.5557 27.896 57.8418 26.6104L57.8418 26.6099ZM47.4355 16.6958L48.7998 16.6958Q49.3655 16.6958 49.7766 16.7183Q50.3279 16.7485 50.7844 16.8257Q51.9268 17.0176 52.698 17.5435Q53.293 17.9683 53.6731 18.5815Q54.2188 19.4619 54.2188 20.5815Q54.2188 21.5098 53.8289 22.3203Q53.4424 23.123 52.7498 23.6538L52.7471 23.6558L52.7446 23.6577Q52.009 24.1914 50.9895 24.3604Q50.6001 24.4253 50.1223 24.4448Q49.8428 24.4561 49.3162 24.4551L49.1548 24.4546L47.1855 24.4546L47.1855 16.6958L47.4355 16.6958ZM47.4355 17.1958L47.4355 16.9458L47.6855 16.9458L47.6855 24.2046L47.4355 24.2046L47.4355 23.9546L49.1555 23.9546L49.3174 23.9551Q49.8333 23.9561 50.1018 23.9453Q50.5488 23.9268 50.9077 23.8672Q51.811 23.7178 52.4507 23.2529L52.5977 23.4556L52.4456 23.2568Q53.0435 22.7988 53.3782 22.1035Q53.7188 21.396 53.7188 20.5815Q53.7188 19.604 53.248 18.8452Q52.9209 18.3169 52.4163 17.9565Q51.7356 17.4927 50.7014 17.3184Q49.9727 17.1958 48.7998 17.1958L47.4355 17.1958Z" fill="#80949F" fill-opacity="1.000000" fill-rule="nonzero"/>
	<path id="Fill 7" d="M80.47 24.12C79.02 22.84 77 22.09 74.71 21.32C73.08 20.75 72.18 20.44 71.58 19.89C71.1 19.49 70.89 19.06 70.89 18.48C70.89 17.21 71.75 15.86 74.16 15.86C75.8 15.86 77.17 16.56 78.24 17.95L78.66 18.49L82.18 14.02L81.86 13.7C79.71 11.54 76.87 10.41 73.66 10.41C67.18 10.41 64.28 14.62 64.28 18.8C64.28 21.04 65.08 22.85 66.66 24.17C68.06 25.38 69.78 26.05 71.42 26.6L71.61 26.66C73.07 27.15 74.58 27.65 75.49 28.46C76.11 29.03 76.39 29.66 76.39 30.49C76.39 32.39 74.9 33.67 72.67 33.67C70.91 33.67 68.59 32.8 67.37 30.38L67.05 29.75L62.67 33.79L62.93 34.16C64.33 36.13 67.47 39.44 72.88 39.44C78.84 39.44 83 35.61 83 30.13C83 26.99 81.62 25.13 80.47 24.12Z" fill="#6B7B84" fill-opacity="1.000000" fill-rule="evenodd"/>
	<path id="Fill 7" d="M74.71 21.32C73.08 20.75 72.18 20.44 71.58 19.89C71.1 19.49 70.89 19.06 70.89 18.48C70.89 17.21 71.75 15.86 74.16 15.86C75.8 15.86 77.17 16.56 78.24 17.95L78.66 18.49L82.18 14.02L81.86 13.7C79.71 11.54 76.87 10.41 73.66 10.41C67.18 10.41 64.28 14.62 64.28 18.8C64.28 21.04 65.08 22.85 66.66 24.17C68.06 25.38 69.78 26.05 71.42 26.6L71.61 26.66C73.07 27.15 74.58 27.65 75.49 28.46C76.11 29.03 76.39 29.66 76.39 30.49C76.39 32.39 74.9 33.67 72.67 33.67C70.91 33.67 68.59 32.8 67.37 30.38L67.05 29.75L62.67 33.79L62.93 34.16C64.33 36.13 67.47 39.44 72.88 39.44C78.84 39.44 83 35.61 83 30.13C83 26.99 81.62 25.13 80.47 24.12C79.02 22.84 77 22.09 74.71 21.32Z" stroke="#80949F" stroke-opacity="1.000000" stroke-width="0.500000"/>
    </symbol>
    
    <symbol viewBox="0 0 16 16" id='ic_cross' fill="none">
        <path id="icon" d="M9.57202 8.03564L15.7786 14.2422C16.1692 14.6328 16.1692 15.2661 15.7786 15.6567L15.6565 15.7788C15.2659 16.1689 14.6328 16.1689 14.2422 15.7788L8.03589 9.57227L1.82935 15.7788C1.43872 16.1689 0.805664 16.1689 0.415039 15.7788L0.292969 15.6567C-0.0976562 15.2661 -0.0976562 14.6328 0.292969 14.2422L6.49951 8.03564L0.292969 1.8291C-0.0976562 1.43896 -0.0976562 0.805664 0.292969 0.415039L0.415039 0.292969C0.805664 -0.0976562 1.43872 -0.0976562 1.82935 0.292969L8.03589 6.49951L14.2422 0.292969C14.6328 -0.0976562 15.2659 -0.0976562 15.6565 0.292969L15.7786 0.415039C16.1692 0.805664 16.1692 1.43896 15.7786 1.8291L9.57202 8.03564Z" clip-rule="evenodd" fill="#FFFFFF" fill-opacity="1.000000" fill-rule="evenodd"/>
    </symbol>
    <symbol id='ic_search' viewBox="0 0 17 17" fill="none">
        <path id="icon" d="M12.5007 11.0005L11.7107 11.0005L11.4307 10.7305C12.6306 9.33057 13.2507 7.42041 12.9106 5.39062C12.4407 2.61084 10.1206 0.390625 7.32056 0.0507812C3.09058 -0.469238 -0.469482 3.09082 0.0505371 7.3208C0.390625 10.1206 2.6106 12.4404 5.39062 12.9106C7.42065 13.2505 9.33057 12.6309 10.7307 11.4307L11.0007 11.7104L11.0007 12.5005L15.2607 16.7505C15.6707 17.1606 16.3306 17.1606 16.7407 16.7505L16.7507 16.7407C17.1606 16.3306 17.1606 15.6704 16.7507 15.2607L12.5007 11.0005ZM2.00073 6.50049C2.00073 8.99072 4.01074 11.0005 6.50073 11.0005C8.99072 11.0005 11.0007 8.99072 11.0007 6.50049C11.0007 4.01074 8.99072 2.00049 6.50073 2.00049C4.01074 2.00049 2.00073 4.01074 2.00073 6.50049Z" clip-rule="evenodd" fill="#FFFFFF" fill-opacity="1.000000" fill-rule="evenodd"/>
    </symbol>
    <symbol id='ic_call' viewBox="0 0 17.9636 17.9634" fill="none">
        <path id="icon" d="M1.76 12.25L4.3 11.96C4.9 11.89 5.51 12.1 5.93 12.52L7.78 14.37C10.6 12.93 12.92 10.62 14.36 7.77L12.52 5.93C12.08 5.5 11.87 4.89 11.95 4.29L12.24 1.77C12.35 0.75 13.21 0 14.23 0L15.96 0C17.08 0 18.03 0.93 17.95 2.06C17.42 10.6 10.59 17.43 2.07 17.95C0.93 18.02 0 17.08 0 15.96L0 14.23C-0.02 13.22 0.75 12.37 1.76 12.25Z" fill="#FFFFFF" fill-opacity="1.000000" fill-rule="evenodd"/>
    </symbol>
    <symbol id='ic_chat' viewBox="0 0 20 20" fill="none">
        <path id="icon" d="M2 0L18 0C19.1001 0 20 0.899902 20 2L20 13C20 14.1001 19.1001 15 18 15L4 15L0 20L0.0100098 2C0.0100098 0.899902 0.899902 0 2 0ZM5 6L15 6C15.55 6 16 5.5498 16 5C16 4.4502 15.55 4 15 4L5 4C4.44995 4 4 4.4502 4 5C4 5.5498 4.44995 6 5 6ZM11 11L5 11C4.44995 11 4 10.5498 4 10C4 9.4502 4.44995 9 5 9L11 9C11.55 9 12 9.4502 12 10C12 10.5498 11.55 11 11 11Z" clip-rule="evenodd" fill="#FFFFFF" fill-opacity="1.000000" fill-rule="evenodd"/>
    </symbol>
    <symbol id='ic_profile' viewBox="0 0 20 19" fill="none">
        <path id="Oval" d="M10.5 9C12.98 9 15 6.98 15 4.5C15 2.01 12.98 0 10.5 0C8.01 0 6 2.01 6 4.5C6 6.98 8.01 9 10.5 9Z" fill="#FFFFFF" fill-opacity="1.000000" fill-rule="nonzero"/>
	    <path id="Path" d="M0.01 16.61C-0.12 17.34 0.53 18 1.33 18L18.66 18C19.49 18 20.11 17.34 19.98 16.61C19.23 12.39 15.05 10 9.99 10C4.94 10 0.76 12.39 0.01 16.61Z" fill="#FFFFFF" fill-opacity="1.000000" fill-rule="nonzero"/>
    </symbol>

</svg>




